<?xml version="1.0" encoding="UTF-8" standalone="no"?>
<svg
   width="1280"
   height="320"
   viewBox="0 0 1280 320"
   version="1.1"
   id="svg5"
   xmlns="http://www.w3.org/2000/svg"
   xmlns:svg="http://www.w3.org/2000/svg">
  <path
     id="logo"
     style="fill:#ee4c2c"
     d="m 341.16003,278.90854 c 9.93159,-1.632 18.98975,-4.71818 24.98407,-8.51228 12.16416,-7.69934 20.84139,-19.82646 24.39201,-34.08989 1.0378,-4.16896 1.25976,-6.28951 1.29328,-12.35739 0.059,-10.58788 -1.4906,-18.20322 -8.08857,-39.76318 -3.79925,-12.41462 -6.51708,-23.54599 -7.4624,-30.56346 -0.99089,-7.35592 -0.3515,-18.42353 1.49615,-25.90058 0.84772,-3.4302 1.45919,-6.49092 1.35888,-6.80156 -0.10068,-0.31083 -1.02884,0.82935 -2.06347,2.53342 -5.30265,8.73354 -7.3649,17.94393 -6.21798,27.77056 0.80941,6.93473 2.4674,13.73445 6.69968,27.47635 8.53756,27.72108 9.72386,37.70709 6.20774,52.25726 -3.2469,13.43623 -11.47478,25.98055 -21.45883,32.71629 -16.58928,11.19194 -46.85678,13.4347 -70.56622,5.22872 -14.92033,-5.16406 -24.49966,-13.3386 -27.81468,-23.73578 -2.1526,-6.75132 -2.30815,-12.26643 -0.83507,-29.60829 2.53576,-29.85232 1.55824,-38.06399 -5.43982,-45.69782 -1.44732,-1.57882 -2.74568,-2.74989 -2.88524,-2.60245 -0.13954,0.1477 0.39515,1.54433 1.18815,3.10411 0.79304,1.55977 1.96206,4.60184 2.59784,6.76003 1.02668,3.48513 1.15287,4.91871 1.12838,12.81839 -0.0263,8.55938 -0.12312,9.3969 -2.56461,22.23599 -3.8768,20.38714 -4.22817,25.5832 -2.28195,33.74642 4.28028,17.9534 27.71318,31.02798 60.83038,33.94088 4.73002,0.41598 20.82514,-0.1872 25.50228,-0.95574 z m -5.84396,-19.05204 c 8.08103,-2.24292 15.02921,-6.56314 21.50025,-13.3685 4.70715,-4.95034 8.19431,-9.76395 10.24836,-16.03185 4.02337,-12.27718 5.75459,-23.59702 2.16286,-34.65895 -0.72998,-2.24824 -3.45752,-8.48567 -6.05088,-13.86483 -6.42632,-13.32929 -6.89602,-15.04443 -6.90566,-25.21456 -0.006,-7.44414 0.10582,-8.48691 1.37566,-12.70736 3.04758,-10.12875 9.04518,-20.02008 17.13052,-28.25189 3.70812,-3.77538 11.36418,-9.79085 12.46133,-9.79116 0.15036,-6e-5 -0.32345,1.9423 -1.05312,4.31635 -1.96323,6.38779 -2.66384,11.39684 -2.61618,18.70439 0.068,10.42246 2.22749,19.20356 7.82204,31.13044 6.25513,13.33501 16.883,22.87395 20.78431,33.273 4.13006,11.00877 4.56584,17.54238 4.07437,24.29827 -1.08657,14.93549 -7.86748,25.79843 -23.01095,36.86339 -2.54109,1.8567 -4.37155,3.46338 -4.06765,3.5704 0.99461,0.35036 8.59592,-2.57364 12.9559,-4.98372 10.54342,-5.8281 18.80189,-15.68273 21.36718,-27.84751 1.89263,-8.9749 2.13553,-17.69329 -0.0469,-26.1954 -1.94797,-7.59044 -4.663,-13.54319 -13.10517,-28.87799 -12.1648,-22.09702 -15.16781,-28.99146 -16.97528,-38.97288 -0.82913,-4.57836 -0.92053,-13.13269 -0.19132,-17.88233 0.95112,-6.19288 3.27932,-12.80337 5.64124,-16.01716 1.97622,-2.6889 3.35247,-6.616792 2.59775,-7.41414 -0.47554,-0.50239 -12.94572,6.551478 -18.61696,10.53023 -16.30141,11.43652 -26.28096,24.6552 -31.50594,41.73203 -1.66735,5.44936 -3.69701,16.04633 -3.69701,19.3022 0,1.41791 -0.0837,1.4889 -1.08353,0.92336 -2.24772,-1.27101 -5.87986,-5.40864 -7.05838,-8.04069 -0.67275,-1.50255 -1.46819,-4.35212 -1.76758,-6.33228 -1.00761,-6.66414 -0.1375,-10.73807 9.15423,-42.86482 3.18728,-11.021564 2.88771,-21.220444 -0.98647,-33.56857 -2.05905,-6.56334 -4.18895,-11.082862 -8.23556,-17.475279 -3.56262,-5.628008 -12.1836,-14.956936 -13.01246,-14.081173 -0.27719,0.29291 -0.65202,3.882352 -0.83303,7.976725 -0.34278,7.746782 -1.00523,11.284563 -3.4274,18.296973 -3.45165,9.992606 -9.02732,18.293388 -26.23052,39.050494 -8.81663,10.63812 -12.95476,16.68756 -16.32682,23.86805 -4.10465,8.74052 -5.48366,13.58657 -5.49855,19.25555 -0.0182,6.93252 0.92127,9.97667 1.99199,13.43122 1.53023,4.93744 4.53739,9.61152 7.6348,11.8668 1.32168,0.96233 2.58699,1.74965 2.81187,1.74965 0.22457,0 -0.35621,-1.74983 -1.2915,-3.88852 -7.36936,-16.85232 -3.57747,-34.19232 11.58838,-52.99235 1.8066,-2.2396 6.07339,-7.1414 9.48173,-10.89287 11.47818,-12.633924 15.50489,-18.110534 19.77702,-26.897952 2.68682,-5.526538 6.12901,-15.773932 6.73166,-20.03997 0.19298,-1.366849 0.49716,-2.485221 0.67578,-2.485221 0.1784,0 1.47925,2.531011 2.8903,5.624425 4.66854,10.234846 6.58188,18.406348 6.56767,28.049012 -0.012,9.020076 -1.18348,13.841226 -6.9159,28.493646 -5.28131,13.49911 -6.35822,19.83566 -4.74119,27.89637 1.75187,8.73279 4.08403,12.12311 17.5473,25.50949 10.17953,10.12132 13.76909,16.00169 15.25753,24.99451 2.94775,17.81003 -5.40418,37.98706 -19.06906,46.06809 -7.63219,4.51348 -14.93539,6.21358 -24.74094,5.75958 -21.60085,-1.00028 -35.27938,-14.34826 -35.24031,-34.38859 0.0407,-21.85886 11.93914,-35.8382 30.42822,-35.75552 8.65541,0.0378 15.9682,2.98311 21.95592,8.84033 3.89599,3.81114 6.12059,7.80318 7.30244,13.10424 1.45416,6.52238 0.13984,14.63999 -3.18783,19.68804 -2.00195,3.037 -5.79577,6.79174 -8.49136,8.40385 -9.52472,5.69648 -22.31182,2.87831 -26.32593,-5.80196 -0.91256,-1.9733 -1.14049,-3.34529 -1.14786,-6.90939 -0.006,-3.90354 0.179,-4.86731 1.53206,-7.88372 1.76619,-3.93802 4.47096,-6.97336 6.99993,-7.85517 2.51307,-0.87632 8.53843,-0.36155 10.59034,0.90442 2.57968,1.59186 3.89476,4.04662 3.89476,7.27011 0,2.29069 -0.23169,3.00702 -1.40066,4.32914 -1.52456,1.72439 -4.82639,2.92352 -9.62395,3.49532 -3.25093,0.38755 -3.24638,0.72884 0.0408,2.93021 4.08977,2.74037 8.29011,1.89458 11.85776,-2.38776 3.61782,-4.34255 5.29633,-11.14072 4.07676,-16.51172 -0.78273,-3.44744 -4.19298,-7.41568 -7.17722,-8.35158 -3.11998,-0.97852 -9.45879,-1.26606 -12.42869,-0.5636 -10.31227,2.43832 -17.22816,16.43637 -14.8949,30.14783 1.19823,7.04151 4.79769,12.96087 9.41307,15.48014 5.12051,2.7949 15.29353,3.92686 20.96156,2.33234 13.54965,-3.81171 22.60226,-17.41446 22.66781,-34.06138 0.0355,-9.59279 -2.29726,-16.35957 -7.64341,-22.15023 -5.0407,-5.45969 -10.47121,-8.7216 -23.77013,-14.27792 -8.28922,-3.46325 -7.91889,-3.00851 -9.20735,-11.30416 -1.91203,-12.31024 0.36555,-20.4755 10.90454,-39.08861 9.61905,-16.9889 11.69525,-22.876324 11.63467,-32.991968 -0.0408,-6.973432 -0.47796,-8.062078 -1.64099,-4.097478 -1.89059,6.44383 -5.9563,14.121218 -15.01499,28.353046 -12.91533,20.29093 -16.17323,27.85874 -16.8115,39.05167 -0.3369,5.90997 0.93562,12.87481 3.49102,19.10515 0.98392,2.39881 1.78889,4.51252 1.78889,4.69704 0,0.18474 -1.28128,0.75318 -2.84732,1.26376 -5.22056,1.70206 -10.13837,5.09821 -16.05762,11.08918 -1.54634,1.56515 -2.91283,2.66412 -3.03664,2.44215 -0.124,-0.22185 -0.38602,-1.22765 -0.58312,-2.23483 -0.8032,-4.1082 -3.97752,-13.62239 -5.96321,-17.87316 -6.35303,-13.59986 -15.93012,-22.3258 -29.44883,-26.83165 -4.48297,-1.49422 -13.12671,-3.06128 -15.45238,-2.80144 l -1.40237,0.157 1.78348,2.79073 c 6.30965,9.87309 8.95525,20.4648 7.72124,30.91205 -0.76118,6.44419 -1.97781,11.22653 -6.93242,27.25006 -4.6387,15.00179 -5.77164,19.50069 -6.52198,25.89841 -1.54957,13.21221 3.46363,24.94428 12.62889,29.55466 3.71126,1.8669 10.04731,3.2534 13.90738,3.04334 l 2.93396,-0.1594 -6.5514,-3.62288 c -9.54464,-5.27816 -12.08287,-8.26788 -14.0708,-16.57371 -0.90255,-3.77108 -1.01063,-5.34074 -0.77058,-11.19162 0.30981,-7.55083 1.13414,-11.61766 5.30342,-26.16383 7.52915,-26.26857 8.41663,-35.97779 4.43602,-48.53119 -0.80804,-2.54826 -1.46917,-4.7415 -1.46917,-4.87386 0,-0.1322 1.1216,0.35966 2.49243,1.09384 16.17572,8.66048 27.42748,24.36482 29.67426,41.41687 0.29653,2.25102 0.74244,11.86223 0.99083,21.35832 0.38308,14.65099 0.6045,17.88473 1.46168,21.35385 1.49293,6.04273 3.56419,9.71539 8.00984,14.20305 3.16261,3.1924 4.88405,4.42446 9.46315,6.77282 3.07851,1.5788 7.71418,3.45696 10.30159,4.17366 4.09607,1.13468 6.41358,1.5832 13.61764,2.63532 3.61935,0.52838 13.98931,-0.1742 17.67756,-1.19758 z" />
  <path
     id="zuko"
     style="fill:#e6e6e6"
     d="m 800.54658,80 c -0.70406,0 -1.67256,0.435156 -2.9047,1.310918 -1.0561,0.87576 -2.20034,1.928954 -3.43246,3.15502 -0.52806,0.350304 -1.05924,0.874896 -1.5873,1.575504 -0.52806,0.525458 -0.96536,1.050048 -1.3174,1.575506 -1.23212,1.40122 -2.29052,2.714702 -3.17058,3.940768 -0.70408,1.226068 -1.05554,2.189822 -1.05554,2.890432 v 0.52517 0.264588 c 0.1758,0.875762 0.52748,1.75008 1.05554,2.625842 0.52804,0.875762 1.05926,2.103818 1.58732,3.680192 0.52802,1.57637 1.05522,3.67874 1.58326,6.30603 0.52806,2.62728 0.8795,5.9537 1.05554,9.98221 v 6.56661 c 0.1758,2.27698 0.35172,4.46879 0.52776,6.57062 0,3.85335 0.0898,7.70436 0.26588,11.55771 0.176,3.6782 0.26186,7.44379 0.26186,11.29714 0.1758,3.15274 0.2659,6.30831 0.2659,9.46105 v 8.93188 5.78086 c 0,1.92667 -0.0898,3.85018 -0.2659,5.77685 0,4.20366 -0.0858,8.49784 -0.26186,12.87665 -0.1758,4.20366 -0.35578,8.22954 -0.53178,12.08289 -0.1758,5.60487 -0.4376,10.59851 -0.78962,14.97732 -0.176,4.37882 -0.2659,7.70524 -0.2659,9.98222 0,1.22606 0.35146,2.27926 1.05552,3.15502 0.88008,0.87576 1.76274,1.57522 2.64282,2.10068 0.52806,0.3503 1.05524,0.6146 1.5833,0.78974 0.52806,0.1752 0.96938,0.26058 1.32142,0.26058 0.52802,0 1.23094,-0.1748 2.11104,-0.52516 1.0561,-0.1752 2.11048,-0.52488 3.16656,-1.05034 1.40814,-0.52546 2.64224,-1.2249 3.69836,-2.10068 1.23212,-1.0509 1.84918,-2.18952 1.84918,-3.4156 v -19.17867 -18.6535 l 0.52776,-18.9181 h 0.52776 c 0.35202,-0.17514 0.7035,-0.26458 1.05552,-0.26458 0.70406,-0.17514 1.49686,-0.26058 2.37694,-0.26058 0.88008,-0.17514 1.8486,-0.26459 2.90468,-0.26459 2.28824,0 5.8967,2.10237 10.82516,6.30603 5.1045,4.20365 16.2813,14.45122 33.53098,30.7404 7.04066,6.48063 13.11332,12.43401 18.21782,17.86375 5.2805,5.25456 8.88896,7.88154 10.82514,7.88154 0.88008,0 2.28592,-0.2603 4.22208,-0.78576 2.11222,-0.7006 4.31484,-1.57894 6.60308,-2.62984 1.05612,-0.35032 2.11046,-0.78546 3.16656,-1.31092 1.23212,-0.70062 2.37636,-1.31464 3.43246,-1.8401 1.40814,-0.87576 2.55238,-1.66466 3.43248,-2.36526 0.88006,-0.87576 1.3214,-1.57522 1.3214,-2.10068 0,-1.75152 -0.44134,-3.065 -1.3214,-3.94076 -0.7041,-0.87576 -2.28964,-1.4898 -4.75388,-1.8401 -4.57646,-0.7006 -9.50486,-2.80298 -14.78538,-6.30603 -5.28052,-3.50305 -10.64624,-7.61836 -16.10276,-12.34748 -1.58416,-1.40121 -3.2596,-2.80413 -5.01976,-4.20535 -1.58416,-1.57637 -3.25558,-3.15015 -5.01576,-4.72652 -7.2167,-6.65579 -14.08214,-12.78805 -20.59476,-18.39292 -6.33664,-5.60488 -11.5266,-8.667 -15.57502,-9.19246 v -0.52917 c 3.69636,-2.27699 8.71064,-6.3923 15.04724,-12.34748 6.33662,-5.95518 13.02634,-12.34773 20.06702,-19.17867 l 0.52776,-0.52517 c 0.35202,-0.3503 0.7035,-0.6146 1.0555,-0.78976 4.40046,-4.37881 8.71582,-8.49412 12.94024,-12.34747 4.2244,-4.0285 8.18432,-7.52979 11.88068,-10.50738 0.88006,-0.70061 1.84858,-1.31464 2.90468,-1.84009 1.23212,-0.52546 2.46222,-0.96462 3.69436,-1.31493 0.70406,-0.3503 1.40694,-0.61059 2.11102,-0.78575 0.8801,-0.3503 1.67286,-0.6146 2.37694,-0.78975 1.40814,-0.52546 2.55238,-1.05005 3.43246,-1.57551 1.05612,-0.70061 1.58328,-1.40006 1.58328,-2.10067 0,-0.52546 -0.52716,-1.40379 -1.58328,-2.629854 -1.0561,-1.226068 -2.28618,-2.539552 -3.69432,-3.940768 -0.70408,-0.525458 -1.32114,-1.05005 -1.84918,-1.575506 -0.52806,-0.525458 -1.14512,-1.050048 -1.84918,-1.575506 -1.40812,-1.050914 -2.81396,-1.929242 -4.2221,-2.62985 -1.2321,-0.875764 -2.29048,-1.310918 -3.17058,-1.310918 -1.40814,0 -5.9851,3.940446 -13.72986,11.822304 -7.74474,7.706708 -16.10588,16.287058 -25.08274,25.745288 -9.1529,9.45822 -17.59988,18.13202 -25.34462,26.01388 -7.74476,7.88185 -12.32174,11.8223 -13.72986,11.8223 -1.05608,0 -1.75902,-0.43916 -2.11104,-1.31492 -0.1758,-1.05092 -0.2659,-2.45384 -0.2659,-4.20536 0,-3.6782 0.1756,-8.14324 0.52776,-13.39781 0.35206,-5.25457 0.79338,-12.52144 1.32144,-21.80452 0,-1.75152 0.0898,-3.67903 0.26588,-5.78086 0.1758,-2.10183 0.26186,-4.29364 0.26186,-6.57062 0,-1.40122 0.1756,-2.62526 0.52778,-3.67618 0.52804,-1.22606 0.96936,-2.27926 1.3214,-3.15502 l 1.3214,-2.62584 c 0.35206,-0.875764 0.52778,-1.664654 0.52778,-2.365264 0,-0.525458 -0.2656,-1.489212 -0.79366,-2.890432 -0.52804,-1.401218 -1.23094,-2.889564 -2.11104,-4.465936 0,-0.350304 -0.0898,-0.610596 -0.26588,-0.785748 l -0.52778,-1.054344 c -0.52804,-1.226068 -1.14512,-2.360678 -1.84918,-3.411594 -0.52806,-1.050914 -0.96534,-1.754378 -1.31738,-2.10468 -0.1758,-0.17514 -0.52748,-0.350018 -1.05554,-0.52517 -0.35202,-0.350306 -0.88324,-0.700032 -1.5873,-1.050338 l -1.05552,-0.525168 c -0.1758,-0.17514 -0.4376,-0.350016 -0.78962,-0.525168 -0.8801,-0.350306 -1.67288,-0.614606 -2.37696,-0.789758 C 801.60182,80.08544 801.07464,80 800.54658,80 Z M 479.555,81.050338 c -1.2321,0.350304 -2.46222,1.488922 -3.69434,3.4156 -1.23212,1.926676 -2.20064,3.939614 -2.9047,6.04144 -0.52804,1.40122 -0.96938,2.80414 -1.32142,4.20536 -0.35202,1.401218 -0.52774,2.539836 -0.52774,3.415598 0,2.452134 1.31996,4.025904 3.96022,4.726514 2.64024,0.52546 8.5372,0.78976 17.69006,0.78976 h 7.92044 c 2.28824,0 4.57672,-0.0894 6.86494,-0.26459 2.81626,0 5.7218,-0.0854 8.7141,-0.26058 3.1683,-0.17514 6.95248,-0.35001 11.3529,-0.52517 l 36.43568,-1.5755 -7.92046,9.45704 -7.92044,8.93187 c -23.23426,26.44801 -44.62336,49.74498 -64.16124,69.8875 -19.3619,19.96738 -29.043,31.34956 -29.043,34.152 0,0.7006 0.1756,1.57894 0.52776,2.62984 0.35204,0.87576 0.88324,1.75008 1.5873,2.62584 0.35206,0.70062 0.78934,1.40008 1.3174,2.10068 0.52806,0.7006 1.05928,1.31464 1.58734,1.8401 1.05608,1.22606 2.02458,2.18982 2.90468,2.89042 0.88008,0.70062 1.4931,1.05034 1.84514,1.05034 0.8801,0 2.02434,-0.1748 3.43248,-0.52516 1.40812,-0.52546 4.04806,-1.13948 7.92044,-1.8401 4.04838,-0.52546 9.7696,-0.96062 17.16232,-1.31092 7.3927,-0.52546 17.51514,-0.78976 30.36438,-0.78976 h 37.2253 c 4.40042,0 8.4502,0.0894 12.14656,0.2646 3.69636,0.1752 7.0392,0.35002 10.03148,0.52516 2.81628,0.3503 5.19464,0.6106 7.13084,0.78576 2.11218,0.1752 3.69778,0.26458 4.75386,0.26458 1.23212,0 2.37234,-1.13862 3.42844,-3.4156 1.23212,-2.27698 2.20064,-4.81852 2.9047,-7.62096 0.70406,-2.62728 1.23528,-4.98995 1.58732,-7.09177 0.52804,-2.27699 0.78962,-3.59047 0.78962,-3.94077 0,-0.35031 -0.0858,-0.61461 -0.26188,-0.78976 v -1.05034 c -0.352,-0.70061 -0.79336,-1.31463 -1.3214,-1.84009 -0.52804,-0.70061 -1.23096,-1.05034 -2.11106,-1.05034 -1.2321,0 -2.7278,0.43917 -4.48796,1.31493 -1.58416,0.70061 -3.25962,1.4895 -5.0198,2.36526 -1.23212,0.52546 -2.55208,1.13548 -3.96022,1.83609 -1.23212,0.52545 -2.4622,0.96462 -3.6943,1.31492 -1.05612,0.17514 -2.90326,0.43945 -5.54352,0.78976 -2.46424,0.3503 -5.63538,0.70003 -9.50776,1.05034 -6.68864,0.7006 -14.9599,1.31463 -24.81686,1.84009 -9.85694,0.52546 -20.50656,0.78575 -31.94768,0.78575 h -24.81686 c 2.81626,-6.48064 8.4476,-14.71126 16.89642,-24.69495 8.62484,-10.15884 18.13022,-20.75613 28.5152,-31.79073 1.23212,-1.22607 2.46222,-2.53955 3.69434,-3.94077 1.2321,-1.40122 2.5521,-2.7147 3.96022,-3.94077 13.55332,-14.3625 26.0541,-27.32246 37.49522,-38.88251 11.4411,-11.73521 17.15828,-18.566928 17.15828,-20.493602 0,-0.17514 -0.0858,-0.350016 -0.26188,-0.52517 v -0.789756 c -0.52804,-1.050914 -1.4107,-2.01467 -2.64284,-2.890434 -1.0561,-1.050914 -2.28618,-1.925232 -3.69432,-2.62584 -1.23214,-0.70061 -2.46624,-1.225202 -3.69834,-1.575506 -1.05612,-0.350304 -1.84488,-0.52517 -2.37292,-0.52517 -0.35204,0 -0.70752,0.08542 -1.05954,0.26058 h -1.05554 l -1.05552,0.52517 c -0.1758,0 -0.43758,0.08944 -0.78962,0.264588 -0.52806,0.17514 -1.235,0.350016 -2.11506,0.525168 -0.70408,0.17514 -1.49686,0.26058 -2.37696,0.26058 -1.93618,0 -5.01342,0.08944 -9.23782,0.26459 -4.0484,0 -8.44964,0.08542 -13.20208,0.26058 h -7.3927 -6.86492 -7.1268 -7.65858 c -4.92848,-0.17514 -9.59128,-0.26058 -13.9917,-0.26058 -4.40046,-0.17514 -7.39584,-0.26459 -8.98,-0.26459 -2.81628,0 -5.10476,-0.349726 -6.86494,-1.050336 -1.76016,-0.70061 -3.25584,-1.400066 -4.48798,-2.100674 -0.88008,-0.525458 -1.67288,-1.050048 -2.37694,-1.575506 -0.52806,-0.525458 -1.05524,-0.879194 -1.58328,-1.054346 -0.52804,-0.350306 -0.96534,-0.525168 -1.31738,-0.525168 -0.35206,-0.17514 -0.79338,-0.26058 -1.32144,-0.26058 h -0.52774 z m 157.49038,0 c -2.64026,0 -4.39754,0.874318 -5.2776,2.625844 -0.7041,1.751522 -1.05552,4.642786 -1.05552,8.671292 0,26.973466 0.8786,51.669346 2.6388,74.088846 1.93616,22.41951 5.01742,37.74614 9.24184,45.97831 2.28824,4.55396 5.89668,8.49441 10.82516,11.82229 5.10448,3.3279 10.47022,5.95486 16.10276,7.88154 3.52034,1.22608 7.04294,2.18982 10.5633,2.89044 3.5203,0.7006 6.68742,1.05034 9.50372,1.05034 1.76014,0 3.52146,-0.0854 5.28162,-0.26058 1.9362,-0.1752 3.78334,-0.61432 5.5435,-1.31494 1.58416,-0.52544 3.16972,-1.13948 4.7539,-1.84008 1.58414,-0.70062 3.1657,-1.4895 4.74984,-2.36526 6.1606,-3.3279 12.05752,-7.7035 17.69006,-13.13323 5.80858,-5.60488 10.29968,-12.52602 13.468,-20.75819 0.70408,-1.92667 1.40696,-4.37877 2.11104,-7.35637 0.88008,-2.97758 1.75872,-6.39344 2.6388,-10.24679 0.8801,-4.55397 1.76274,-9.45817 2.64284,-14.71274 l 2.63882,-16.28824 c 1.76016,-10.85945 3.16998,-21.10702 4.2261,-30.7404 1.0561,-9.63338 1.5833,-16.11136 1.5833,-19.439252 0,-2.97759 -1.40986,-5.1694 -4.22614,-6.57062 -2.64026,-1.57637 -5.63162,-2.365262 -8.97596,-2.365262 -2.81626,0 -5.1906,0.439162 -7.1268,1.314926 -1.93616,0.875762 -2.90468,2.453544 -2.90468,4.730526 0,0.87576 0.1756,2.014378 0.52774,3.415598 0.35206,1.40122 0.7035,3.414154 1.05554,6.041444 0.35204,2.62728 0.70348,6.04314 1.05552,10.2468 0.35202,4.20366 0.52778,9.45759 0.52778,15.76307 0,5.07942 -0.1756,11.03682 -0.52778,17.86776 -0.1758,6.65579 -0.79308,13.48349 -1.84918,20.48959 -1.93618,13.13643 -5.8961,25.13664 -11.88068,35.99609 -5.80854,10.85945 -15.31392,16.28825 -28.51522,16.28825 -2.11218,0 -4.40068,-0.26432 -6.86492,-0.78976 -2.46422,-0.70062 -4.92842,-1.57494 -7.39268,-2.62585 -5.1045,-1.92667 -9.94304,-4.64308 -14.51946,-8.14612 -4.40044,-3.50305 -7.48172,-7.1792 -9.24186,-11.03255 -2.8163,-6.48064 -4.5776,-13.83694 -5.28166,-22.06911 -0.70406,-8.40731 -1.05552,-18.21572 -1.05552,-29.42547 0,-10.85945 0.44134,-19.26894 1.32142,-25.22412 1.0561,-6.13034 2.11046,-10.85967 3.16656,-14.18757 0.8801,-2.80244 1.76276,-4.9008 2.64284,-6.30202 0.88008,-1.40122 1.40726,-2.714704 1.58328,-3.940772 0.1758,-0.17514 0.26188,-0.350016 0.26186,-0.525166 v -0.789758 c 2e-5,-0.875762 -0.35144,-1.750082 -1.0555,-2.625844 -0.70408,-1.050912 -1.67258,-2.014668 -2.90472,-2.89043 -1.0561,-1.050916 -2.28618,-2.01467 -3.69432,-2.890432 -1.23214,-0.87576 -2.46624,-1.664652 -3.69836,-2.365264 -2.1122,-1.226066 -4.13506,-2.18982 -6.07126,-2.89043 -1.76016,-0.700608 -3.17002,-1.050336 -4.22612,-1.050336 z m 365.67802,9.72163 c -20.59398,0 -36.172,6.303112 -46.73302,18.914082 -10.56102,12.43582 -17.075,26.09925 -19.53924,40.9872 -0.52806,2.62728 -0.87952,5.25425 -1.05552,7.88154 -0.1758,2.62728 -0.2659,5.25425 -0.2659,7.88153 0,20.14253 5.10414,35.72945 15.31312,46.76405 10.385,11.03461 21.82742,17.34173 34.32462,18.91809 1.0561,0 2.02462,0.0894 2.90472,0.2646 h 3.16654 c 16.19358,0 30.89298,-6.13226 44.09428,-18.39293 13.3773,-12.26067 20.067,-30.0394 20.067,-53.33467 0,-24.34618 -5.194,-42.03548 -15.579,-53.07008 -10.385,-11.209754 -22.6162,-16.813412 -36.6976,-16.813412 z m -5.01974,15.237902 c 10.20894,0 19.36294,4.29018 27.45974,12.87264 8.2728,8.40732 12.4084,23.38423 12.4084,44.92797 0,15.06311 -2.6399,26.35986 -7.9205,33.89141 -5.2805,7.3564 -11.0017,12.34603 -17.1623,14.97332 -2.6402,1.05091 -5.2802,1.8398 -7.9204,2.36526 -2.4642,0.3503 -4.75274,0.52517 -6.86494,0.52517 -10.385,0 -18.65628,-2.9767 -24.81686,-8.93188 -5.9846,-5.95518 -10.38582,-12.43716 -13.20208,-19.44326 -2.11222,-5.07942 -3.60792,-9.80876 -4.48798,-14.18757 -0.70408,-4.55396 -1.05552,-8.14067 -1.05552,-10.76795 0,-15.06311 3.78416,-28.20195 11.35288,-39.4117 7.56874,-11.20975 18.3042,-16.81341 32.20956,-16.81341 z" />
</svg>
