<?xml version="1.0" encoding="UTF-8" standalone="no"?>
<svg
   width="100"
   height="120"
   viewBox="0 0 100 120"
   version="1.1"
   id="svg14"
   xmlns="http://www.w3.org/2000/svg"
   xmlns:svg="http://www.w3.org/2000/svg">
  <path
     style="fill:#ee4c2c"
     d="M 49.930723,0 14.734127,34.944318 c -19.6455027,19.503213 -19.6455027,50.925062 0,70.428272 19.645503,19.50321 51.295526,19.50321 70.531751,0 19.645492,-19.63865 19.645492,-50.925059 0,-70.428272 l -9.00366,8.938444 c 14.734124,14.627411 14.734124,38.192209 0,52.548738 -14.734127,14.62742 -38.473508,14.62742 -52.93478,0 -14.734127,-14.627409 -14.734127,-38.192205 0,-52.548738 l 23.331163,-23.159539 3.272122,-3.251064 z m 17.735523,19.773564 c -3.616682,0 -6.546905,2.911641 -6.546905,6.50213 0,3.590488 2.930223,6.499484 6.546905,6.499484 3.616683,0 6.549565,-2.908996 6.549565,-6.499484 0,-3.590489 -2.932882,-6.50213 -6.549565,-6.50213 z"
     id="pytorch" />
  <path
     style="fill:#000000;fill-opacity:0.25"
     d="m 26.581743,86.825099 c -3.424375,-6.433976 -4.654933,-15.970076 -4.96274,-22.874268 -0.307807,-6.904192 2.301075,-13.71252 6.679211,-16.518147 4.378137,-2.805628 7.653424,-0.651529 10.83002,2.233768 3.176596,2.885299 5.92698,-0.320944 10.136356,-3.092747 4.209376,-2.771804 12.092953,-5.367637 19.118525,-1.591268 7.025573,3.776369 13.368969,14.488461 10.596458,22.899854 -2.772513,8.411392 -13.293048,13.313137 -19.238173,12.724296 -5.945125,-0.588846 -7.891271,0.993057 -7.671391,5.314629 0.21988,4.321572 -1.364489,8.652243 -3.02126,12.133174 -8.322667,11.68407 -17.259475,-1.726649 -22.467006,-11.229291 z"
     id="path13714" />
  <path
     style="fill:#000000;fill-opacity:0.25"
     d="m 47.197801,83.283657 c -0.423674,3.653679 -1.499783,8.634764 -5.487179,9.80844 -3.987396,1.173677 -5.651889,-0.05286 -8.612548,-5.583206 -2.960659,-5.530319 -6.315674,-19.487989 -6.592567,-25.84675 -0.276892,-6.35876 1.999162,-8.47467 6.050965,-9.22604 4.051803,-0.751372 6.588065,3.192449 10.339647,3.013049 3.751581,-0.1794 5.897648,-3.502516 9.498518,-5.878629 3.600871,-2.376112 8.333254,-4.619023 14.052292,-2.323706 5.719038,2.295319 10.776486,10.783374 9.750718,17.040047 -1.025769,6.256672 -5.691725,10.3708 -10.299933,11.432696 -4.608207,1.061897 -7.791693,0.741692 -11.479249,0.772198 -3.687556,0.03051 -6.796989,3.138229 -7.220664,6.791901 z"
     id="path13578" />
  <path
     style="fill:#000000;fill-opacity:0.25"
     d="m 43.45884,73.466726 c -0.7132,2.864203 1.571039,8.609667 -1.362539,11.652973 -2.933578,3.043306 -6.959433,0.426755 -8.048967,-3.80736 -1.089534,-4.234105 -3.469068,-11.376699 -2.849116,-15.67653 0.619952,-4.29983 4.955018,-6.245606 7.622305,-3.796213 2.667286,2.449393 6.316356,2.742045 8.02089,-1.84929 1.704533,-4.591336 8.543174,-10.445347 15.684,-10.390828 7.140827,0.05452 12.358781,9.08378 10.645011,15.283632 -1.713769,6.199852 -2.304608,7.195116 -10.329359,9.05518 -8.024751,1.860063 -18.669026,-3.335766 -19.382225,-0.471564 z"
     id="path13576" />
  <path
     style="fill:#000000;fill-opacity:0.25"
     d="m 56.560725,71.04456 c -4.09505,-2.064374 -5.873214,-9.003131 -3.452656,-13.372576 2.420558,-4.369445 6.286424,-6.835117 11.979036,-5.035756 5.692612,1.79936 8.104698,11.248175 4.342953,15.491195 -3.761746,4.243019 -8.774282,4.98151 -12.869333,2.917137 z"
     id="path13574" />
  <path
     style="fill:#000000;fill-opacity:0.25"
     d="m 36.494741,66.597413 c 1.42629,-0.09202 2.404746,3.808349 3.175886,6.044088 1.086096,3.148882 1.480698,7.288291 -1.379892,7.597022 -2.86059,0.308732 -3.091874,-3.89728 -3.229898,-5.783659 -0.138023,-1.886379 0.0082,-7.765432 1.433904,-7.857451 z"
     id="path37190" />
  <path
     style="fill:#000000;fill-opacity:0.25"
     d="m 56.547901,67.155465 c 2.000976,1.885325 5.038035,3.454772 8.464742,1.094083 3.426721,-2.360685 5.027966,-8.143692 1.510562,-11.687404 -3.517391,-3.543711 -9.738753,-0.974968 -11.299042,2.269834 -1.560276,3.2448 -0.677224,6.438158 1.323738,8.323487 z"
     id="path13572" />
</svg>
