<?xml version="1.0" encoding="UTF-8" standalone="no"?>
<svg
   width="100"
   height="120"
   viewBox="0 0 100 120"
   version="1.1"
   id="svg5"
   xmlns="http://www.w3.org/2000/svg"
   xmlns:svg="http://www.w3.org/2000/svg">
  <path
     id="logo"
     style="fill:#ee4c2c"
     d="m 58.080016,119.45427 c 4.965793,-0.816 9.494872,-2.35909 12.492034,-4.25614 6.08208,-3.84967 10.420694,-9.91323 12.196006,-17.044944 0.518899,-2.084481 0.629881,-3.144756 0.646639,-6.178697 0.02948,-5.293939 -0.7453,-9.101609 -4.044283,-19.881587 -1.899628,-6.207311 -3.258542,-11.772999 -3.731203,-15.281731 -0.495443,-3.677961 -0.175748,-9.211765 0.748075,-12.950292 0.423859,-1.715101 0.729596,-3.245458 0.679442,-3.400778 -0.05034,-0.155414 -0.514421,0.414675 -1.031736,1.266709 -2.651327,4.366768 -3.68245,8.971964 -3.10899,13.885279 0.404704,3.467365 1.233698,6.867228 3.349841,13.738175 4.268779,13.860543 4.861927,18.853546 3.103868,26.128631 -1.62345,6.718115 -5.73739,12.990275 -10.729416,16.358145 -8.294638,5.59597 -23.428388,6.71735 -35.28311,2.61436 -7.460164,-2.58203 -12.249827,-6.6693 -13.90734,-11.86789 -1.076299,-3.375662 -1.154072,-6.133216 -0.417532,-14.804145 1.267879,-14.926162 0.779121,-19.031996 -2.719909,-22.84891 -0.723661,-0.789408 -1.372842,-1.374947 -1.44262,-1.301223 -0.06977,0.07385 0.197571,0.772165 0.594071,1.552051 0.396522,0.779887 0.981033,2.30092 1.298924,3.380016 0.513337,1.742564 0.576435,2.459355 0.564188,6.409197 -0.01315,4.279691 -0.06156,4.698447 -1.282304,11.117994 -1.938402,10.193569 -2.114085,12.791598 -1.140977,16.87321 2.14014,8.9767 13.85659,15.51399 30.415193,16.97044 2.365009,0.20799 10.412568,-0.0936 12.751139,-0.47787 z m -2.921982,-9.52602 c 4.040515,-1.12146 7.514607,-3.28157 10.750128,-6.68425 2.353572,-2.47517 4.097152,-4.881975 5.124178,-8.015926 2.011687,-6.138589 2.877297,-11.798511 1.081428,-17.329473 -0.364989,-1.124122 -1.728756,-4.242838 -3.02544,-6.932417 -3.213157,-6.664646 -3.448006,-7.522214 -3.452828,-12.607281 -0.0029,-3.722069 0.05291,-4.243454 0.687832,-6.353679 1.523788,-5.064374 4.522586,-10.010041 8.565256,-14.125944 1.854062,-1.88769 5.682092,-4.895425 6.230668,-4.895579 0.07518,-3.2e-5 -0.161726,0.971147 -0.52656,2.158173 -0.981615,3.193894 -1.331921,5.698421 -1.308091,9.352196 0.03402,5.211229 1.113744,9.601778 3.911021,15.565219 3.127563,6.667504 8.441499,11.436977 10.392155,16.6365 2.065028,5.504384 2.282921,8.771192 2.037184,12.149138 -0.543285,7.467744 -3.93374,12.899213 -11.505475,18.431693 -1.270545,0.92835 -2.185773,1.73169 -2.033824,1.7852 0.497306,0.17518 4.297961,-1.28682 6.477951,-2.49186 5.271708,-2.91405 9.400943,-7.841366 10.68359,-13.923753 0.946313,-4.487453 1.067763,-8.846647 -0.02343,-13.097702 -0.973988,-3.79522 -2.3315,-6.771595 -6.552585,-14.438995 -6.082401,-11.048509 -7.583906,-14.495729 -8.487644,-19.486441 -0.414561,-2.289178 -0.460263,-6.566345 -0.09566,-8.941164 0.475562,-3.096441 1.639661,-6.401686 2.820623,-8.00858 0.988108,-1.34445 1.676232,-3.308396 1.298872,-3.70707 -0.23777,-0.251195 -6.47286,3.275739 -9.308477,5.265115 -8.150705,5.718261 -13.140483,12.327601 -15.752972,20.866013 -0.833673,2.724684 -1.848502,8.023166 -1.848502,9.651103 0,0.708953 -0.04184,0.74445 -0.541765,0.461677 -1.123862,-0.635505 -2.939932,-2.704317 -3.529191,-4.020345 -0.336377,-0.751271 -0.734097,-2.176059 -0.883793,-3.16614 C 55.83888,50.691612 56.273933,48.654647 60.9198,32.59127 62.51344,27.080488 62.363653,21.981048 60.426566,15.806985 59.397038,12.525315 58.332088,10.265554 56.308786,7.0693453 54.527457,4.2553415 50.216967,-0.40912246 49.802534,0.02875907 49.663939,0.17521388 49.476523,1.9699351 49.386022,4.0171217 c -0.17139,3.8733907 -0.502616,5.6422812 -1.713701,9.1484863 -1.725827,4.996303 -4.513663,9.146694 -13.115261,19.525248 -4.408317,5.319061 -6.47738,8.343779 -8.163411,11.934023 -2.052322,4.370261 -2.741827,6.793286 -2.749273,9.627774 -0.0091,3.466261 0.460632,4.988338 0.995994,6.715613 0.765114,2.46872 2.268695,4.805757 3.817399,5.933398 0.660843,0.481168 1.293496,0.874828 1.405937,0.874828 0.112282,0 -0.178107,-0.874919 -0.645753,-1.944261 -3.684676,-8.426163 -1.788735,-17.096162 5.794191,-26.496177 0.903299,-1.119799 3.036698,-3.570697 4.740865,-5.446434 5.739091,-6.316962 7.752445,-9.055267 9.888513,-13.448976 1.343407,-2.763269 3.064502,-7.886966 3.365828,-10.019985 0.09649,-0.6834247 0.24858,-1.2426107 0.33789,-1.2426107 0.0892,0 0.739627,1.2655057 1.445151,2.8122127 2.334271,5.117423 3.290941,9.203174 3.283835,14.024506 -0.006,4.51004 -0.591741,6.920613 -3.45795,14.246822 -2.640657,6.749557 -3.179112,9.917829 -2.370595,13.948185 0.875932,4.366394 2.042014,6.061558 8.773647,12.754744 5.089769,5.060663 6.884549,8.000845 7.628765,12.497255 1.473876,8.905017 -2.702086,18.993533 -9.534527,23.034047 -3.816094,2.25674 -7.467696,3.10679 -12.370473,2.87979 C 35.94267,104.87547 29.103404,98.201478 29.122941,88.181314 29.143275,77.251886 35.092509,70.262216 44.33705,70.303553 c 4.327703,0.0189 7.984101,1.491556 10.977959,4.420166 1.947995,1.90557 3.060294,3.901591 3.65122,6.552122 0.727079,3.261187 0.06992,7.319996 -1.593914,9.844018 -1.000974,1.518501 -2.897885,3.395872 -4.245679,4.201924 -4.76236,2.848242 -11.15591,1.439157 -13.162964,-2.900976 -0.456283,-0.98665 -0.570248,-1.672645 -0.573933,-3.454697 -0.0029,-1.95177 0.0895,-2.433654 0.766031,-3.941859 0.883094,-1.969009 2.235481,-3.486683 3.499967,-3.927587 1.256534,-0.43816 4.269215,-0.180775 5.295167,0.452212 1.28984,0.795928 1.947379,2.023307 1.947379,3.635053 0,1.145345 -0.115842,1.503512 -0.700327,2.16457 -0.762282,0.862197 -2.413195,1.461762 -4.811974,1.747661 -1.625469,0.193776 -1.623193,0.364422 0.02041,1.465103 2.044883,1.370186 4.145053,0.947294 5.928876,-1.19388 1.808912,-2.171271 2.648168,-5.57036 2.038383,-8.255857 -0.391367,-1.723719 -2.096493,-3.707843 -3.588609,-4.17579 -1.559992,-0.489263 -4.729398,-0.633029 -6.214348,-0.281802 -5.156133,1.219163 -8.61408,8.218188 -7.447447,15.073916 0.599114,3.520754 2.398841,6.480435 4.706534,7.740071 2.560252,1.397449 7.646762,1.963429 10.480777,1.166169 6.774829,-1.905855 11.301131,-8.70723 11.333907,-17.030688 0.01776,-4.796395 -1.148629,-8.179787 -3.821707,-11.075117 -2.520348,-2.729843 -5.235602,-4.3608 -11.885064,-7.138958 -4.144611,-1.731629 -3.959444,-1.504255 -4.603676,-5.65208 -0.956013,-6.15512 0.182778,-10.237751 5.45227,-19.544306 4.809525,-8.494451 5.847625,-11.438163 5.817336,-16.495985 -0.02041,-3.486716 -0.23898,-4.031039 -0.820494,-2.048739 -0.945294,3.221915 -2.978151,7.060609 -7.507495,14.176524 -6.457666,10.145462 -8.086616,13.929371 -8.405751,19.525834 -0.168449,2.954986 0.46781,6.437406 1.745513,9.552573 0.491959,1.199407 0.894441,2.256264 0.894441,2.34852 0,0.09237 -0.640638,0.376591 -1.423658,0.631883 -2.610281,0.851029 -5.069185,2.549102 -8.028811,5.54459 -0.77317,0.782575 -1.456412,1.332058 -1.51832,1.221075 -0.062,-0.110925 -0.193009,-0.613825 -0.291557,-1.117417 C 27.845888,71.477701 26.25873,66.720605 25.265886,64.595222 22.089372,57.795292 17.300823,53.432322 10.541468,51.179394 8.2999869,50.432287 3.978117,49.648754 2.8152802,49.778675 l -0.7011846,0.0785 0.8917407,1.395364 c 3.1548236,4.936547 4.4776246,10.232399 3.8606201,15.456028 -0.3805908,3.222093 -0.988905,5.613264 -3.4662109,13.625029 -2.3193499,7.500892 -2.88582177,9.750342 -3.26099169,12.949203 -0.77478164,6.606108 1.73181409,12.472141 6.31444569,14.777331 1.8556312,0.93345 5.0236545,1.6267 6.9536925,1.52167 l 1.46698,-0.0797 -3.275701,-1.81144 C 6.8263484,105.05158 5.557236,103.55672 4.5632721,99.403805 4.1119928,97.518267 4.0579538,96.733437 4.1779807,93.807996 4.3328831,90.032579 4.7450492,87.999167 6.8296884,80.726078 10.594264,67.591794 11.038004,62.737183 9.047698,56.460483 8.6436798,55.186355 8.3131174,54.089736 8.3131174,54.023557 c 0,-0.0661 0.5607961,0.17983 1.2462122,0.546916 8.0878614,4.33024 13.7137414,12.182413 14.8371314,20.708436 0.148263,1.125513 0.371217,5.931115 0.495413,10.679161 0.191543,7.325493 0.302249,8.942364 0.730841,10.676926 0.746467,3.021365 1.782095,4.857694 4.004918,7.101524 1.581308,1.5962 2.442029,2.21223 4.731577,3.38641 1.539257,0.7894 3.857092,1.72848 5.150794,2.08683 2.048035,0.56734 3.206789,0.7916 6.808822,1.31766 1.809672,0.26419 6.994655,-0.0871 8.838777,-0.59879 z" />
</svg>
